# xmcd
#
# Track frame offsets: 
#        150
#        17704
#        36414
#        58389
#        77831
#        95524
#        108162
#        125553
#        141309
#        156670
#        184215
#        198100
#        208812
#
# Disc length: 3742 seconds
#
# Revision: 0
# Processed by: cddbd v1.5.2PL0 Copyright (c) Steve Scherf et al.
# Submitted via: ExactAudioCopy v0.90b4
#
DISCID=c30e9c0d
DTITLE=My Baby - My Baby Loves Voodoo!
DYEAR=2013
DGENRE=Blues
TTITLE0=No Depression
TTITLE1=Mad Mountain Thyme
TTITLE2=Out Of Gin
TTITLE3=Money Man
TTITLE4=Juno Moneta
TTITLE5=Singin' In Chains
TTITLE6=Got A Habit
TTITLE7=Take It As A Warning
TTITLE8=Shameless
TTITLE9=Masters Of War
TTITLE10=Leave For Good
TTITLE11=Tribulations
TTITLE12=Good Gin Blues
EXTD=
EXTT0=
EXTT1=
EXTT2=
EXTT3=
EXTT4=
EXTT5=
EXTT6=
EXTT7=
EXTT8=
EXTT9=
EXTT10=
EXTT11=
EXTT12=
PLAYORDER=
